<?xml version="1.0" encoding="UTF-8"?>
<!DOCTYPE svg PUBLIC "-//W3C//DTD SVG 1.1//EN" "http://www.w3.org/Graphics/SVG/1.1/DTD/svg11.dtd">
<!-- Creator: CorelDRAW 2019 -->
<svg xmlns="http://www.w3.org/2000/svg" xml:space="preserve" width="210mm" height="297mm" version="1.1" shape-rendering="geometricPrecision" text-rendering="geometricPrecision" image-rendering="optimizeQuality" fill-rule="evenodd" clip-rule="evenodd"
viewBox="0 0 210 297"
 xmlns:xlink="http://www.w3.org/1999/xlink"
 xmlns:xodm="http://www.corel.com/coreldraw/odm/2003">
 <g id="Layer_x0020_1">
  <metadata id="CorelCorpID_0Corel-Layer"/>
  <g id="_538746312">
   <g>
    <path fill="#0C0B0B" d="M97.0101 129.5834c0.4047,-1.5401 -1.379,-4.968 -2.8344,-5.6428 -0.6021,1.1832 0.8564,5.172 2.8344,5.6428z"/>
    <path fill="#0C0B0B" d="M72.3582 125.9372c0.9621,-0.575 2.8184,-3.672 2.062,-5.0401 -1.1938,0.7116 -2.3742,3.1491 -2.062,5.0401z"/>
    <path fill="#0C0B0B" d="M76.1841 125.3266c0.7326,-0.8328 1.353,-2.9503 1.4474,-4.2756 -1.3278,0.6654 -2.2396,2.9652 -1.4474,4.2756z"/>
   </g>
   <g>
    <path fill="#060606" d="M140.4417 120.8016c0.1294,-1.8881 -0.3023,-9.6403 -2.7934,-10.1832 -0.2719,1.5309 1.1648,9.3452 2.7934,10.1832z"/>
    <path fill="#060606" d="M62.8339 133.6638c1.421,-0.668 3.4741,-6.2863 2.7669,-7.4186 -1.517,0.8077 -3.7259,5.5885 -2.7669,7.4186z"/>
    <path fill="#060606" d="M92.941 127.9895c0.3242,-1.3599 -0.109,-2.0692 -0.7011,-3.1833 -0.7153,-1.346 -0.777,-2.1458 -2.2605,-2.2462 -0.1199,1.5083 0.2294,2.1136 0.8238,3.3366 0.6042,1.2429 0.8633,2.0226 2.1378,2.0929z"/>
    <path fill="#060606" d="M69.7936 124.4926l-0.7308 1.7201 0.2601 1.5178c1.0209,-0.6152 1.1945,-1.3595 1.7612,-2.5514 0.5857,-1.232 1.0457,-1.9564 0.5139,-3.0465 -1.1286,0.6054 -1.3022,1.4283 -1.8044,2.36z"/>
   </g>
   <g>
    <path fill="#050506" d="M88.371 116.6874c6.5847,1.4857 7.6172,-8.0432 1.8954,-9.4094 0.6785,1.6627 2.3486,2.6316 1.386,5.6237 -0.6264,1.9475 -2.859,2.5739 -3.2814,3.7857z"/>
    <path fill="#050506" d="M88.8841 126.7126c0.4912,-1.0166 0.2123,-1.3713 -0.2258,-2.5586 -0.5972,-1.6184 -0.5686,-1.7014 -1.5381,-2.435 -0.0468,0.0849 -0.127,0.1139 -0.1357,0.2572 -0.0757,1.2489 -0.077,1.9977 0.8166,3.7396 0.7352,1.4329 0.0067,0.6171 1.083,0.9968z"/>
   </g>
   <g>
    <path fill="#030303" d="M76.3238 140.16c-0.3531,2.6552 -1.0947,4.8988 0.9186,5.2358 0.7252,-1.4322 0.2255,-3.9382 1.4111,-4.9459 1.0855,0.5249 0.515,-0.4403 0.443,2.8845 -0.0357,1.6523 0.1207,2.3578 1.3209,2.8176 1.0519,-1.352 0.7387,-3.9481 0.9219,-5.6823l1.4929 0.0103c-0.2544,2.0698 -0.5598,4.1378 1.1438,4.8828 0.9035,-1.3102 0.6266,-3.3133 0.5009,-5.2477 1.0864,-0.1618 1.8307,-0.3734 2.8165,-0.8535 1.0923,-0.5319 1.4954,-0.5787 1.4052,-1.6688l-7.9284 -0.0728c-2.2755,-0.0272 -5.8818,-0.6543 -7.6859,-0.4528 0.0424,1.9875 1.7257,2.0242 3.2395,3.0928z"/>
    <path fill="#030303" d="M80.1027 114.76c1.1159,0.8395 4.2874,1.224 5.8596,0.9513 0.0489,-1.6368 -0.8625,-2.2356 -2.5486,-2.5112 -1.7347,-0.2836 -2.7188,0.3326 -3.311,1.5599z"/>
    <path fill="#030303" d="M100.8785 132.3432c0.8974,-1.6818 -1.5478,-5.7694 -2.8222,-6.3684 -0.383,0.6341 -0.5122,0.8861 -0.1788,1.9856 0.4039,1.3317 1.7715,4.0003 3.001,4.3828z"/>
    <path fill="#030303" d="M68.8818 126.3718l0.5888 -1.8267 -0.2229 -0.9013c-1.7824,0.6306 -3.5758,4.2257 -3.1675,6.5047 1.414,-0.4815 1.9392,-2.4712 2.8016,-3.7767z"/>
    <path fill="#030303" d="M137.894 103.4584c0.3078,0.8911 0.7186,1.389 1.8763,1.722 1.9966,0.5742 2.455,-0.098 2.8949,-1.0038 -0.459,-0.3324 -0.0122,-0.2523 -1.0513,-0.5624 -0.6305,-0.1881 -3.2159,-0.5352 -3.7199,-0.1558z"/>
   </g>
   <g>
    <path fill="#020202" d="M93.7285 86.642c1.836,-0.4984 3.1512,-1.8938 5.5969,-2.4271 -0.1057,6.382 5.5395,6.2492 7.7384,3.9219 1.3868,-1.4678 0.8747,-2.1779 1.5758,-3.2519 1.38,0.7257 3.3728,1.9811 5.3052,1.9632 0.0113,-3.1972 -6.0138,-5.5281 -9.8772,-5.7496 -4.3537,-0.2497 -10.0181,1.9898 -10.3391,5.5435z"/>
    <path fill="#020202" d="M67.3861 132.0856c2.9207,0.9228 4.2993,-0.979 7.6533,-0.3153 3.7725,0.7466 2.9699,1.2672 7.1515,0.2894 6.3333,-1.4809 13.6363,2.3683 15.1058,-0.3883 -2.4705,-0.7425 -5.1076,-1.2284 -7.7106,-2.0886 -3.2827,-1.0847 -4.6359,-2.2168 -8.3495,-0.9271 -6.2522,2.1714 -4.6267,-3.2877 -10.9584,1.0129 -1.1761,0.7989 -2.432,1.169 -2.8921,2.417z"/>
   </g>
   <g>
    <path fill="#FDFEFD" d="M77.2424 145.3958c-2.0133,-0.337 -1.2717,-2.5806 -0.9186,-5.2358 -1.5138,-1.0686 -3.1971,-1.1053 -3.2395,-3.0928 1.8041,-0.2015 5.4104,0.4256 7.6859,0.4528l7.9284 0.0728c0.0902,1.0901 -0.3129,1.1369 -1.4052,1.6688 -0.9858,0.4801 -1.7301,0.6917 -2.8165,0.8535 0.1257,1.9344 0.4026,3.9375 -0.5009,5.2477 -1.7036,-0.745 -1.3982,-2.813 -1.1438,-4.8828l-1.4929 -0.0103c-0.1832,1.7342 0.13,4.3303 -0.9219,5.6823 -1.2002,-0.4598 -1.3566,-1.1653 -1.3209,-2.8176 0.072,-3.3248 0.6425,-2.3596 -0.443,-2.8845 -1.1856,1.0077 -0.6859,3.5137 -1.4111,4.9459zm-9.8563 -13.3102c0.4601,-1.248 1.716,-1.6181 2.8921,-2.417 6.3317,-4.3006 4.7062,1.1585 10.9584,-1.0129 3.7136,-1.2897 5.0668,-0.1576 8.3495,0.9271 2.603,0.8602 5.2401,1.3461 7.7106,2.0886 -1.4695,2.7566 -8.7725,-1.0926 -15.1058,0.3883 -4.1816,0.9778 -3.379,0.4572 -7.1515,-0.2894 -3.354,-0.6637 -4.7326,1.2381 -7.6533,0.3153zm36.5636 -0.2573c0.318,1.763 -0.0449,0.9973 -0.249,1.3379 -1.2428,-0.763 -2.6849,-3.9545 -2.1166,-5.36 1.138,0.3791 2.1253,2.6898 2.3656,4.0221zm-5.8934 -5.8535c1.2744,0.599 3.7196,4.6866 2.8222,6.3684 -1.2295,-0.3825 -2.5971,-3.0511 -3.001,-4.3828 -0.3334,-1.0995 -0.2042,-1.3515 0.1788,-1.9856zm-35.2224 7.689c-0.959,-1.8301 1.2499,-6.6109 2.7669,-7.4186 0.7072,1.1323 -1.3459,6.7506 -2.7669,7.4186zm18.5293 -8.0837c-0.9023,-0.3701 -0.8899,-0.6187 -1.0761,-1.9779 -0.4272,-3.1197 0.3373,-2.3978 0.4831,-2.5606 0.678,1.3234 1.0202,3.0759 0.593,4.5385zm12.8125 -1.6395c1.4554,0.6748 3.2391,4.1027 2.8344,5.6428 -1.978,-0.4708 -3.4365,-4.4596 -2.8344,-5.6428zm-1.9358 0.8656c0.5921,1.1141 1.0253,1.8234 0.7011,3.1833 -1.2745,-0.0703 -1.5336,-0.85 -2.1378,-2.0929 -0.5944,-1.223 -0.9437,-1.8283 -0.8238,-3.3366 1.4835,0.1004 1.5452,0.9002 2.2605,2.2462zm-3.5816 -0.6522c0.4381,1.1873 0.717,1.542 0.2258,2.5586 -1.0763,-0.3797 -0.3478,0.4361 -1.083,-0.9968 -0.8936,-1.7419 -0.8923,-2.4907 -0.8166,-3.7396 0.0087,-0.1433 0.0889,-0.1723 0.1357,-0.2572 0.9695,0.7336 0.9409,0.8166 1.5381,2.435zm-19.5955 2.0587l-0.181 0.1591c-0.8624,1.3055 -1.3876,3.2952 -2.8016,3.7767 -0.4083,-2.279 1.3851,-5.8741 3.1675,-6.5047l0.2229 0.9013 0.323 -0.0525c0.5022,-0.9317 0.6758,-1.7546 1.8044,-2.36 0.5318,1.0901 0.0718,1.8145 -0.5139,3.0465 -0.5667,1.1919 -0.7403,1.9362 -1.7612,2.5514l-0.2601 -1.5178zm16.254 -1.5016c0.1249,1.6724 -0.0429,0.5571 -0.3133,0.9482 -1.0211,-0.8182 -1.8164,-3.2572 -1.0453,-4.4737 0.3601,0.6484 0.5776,1.2983 0.9134,2.1891 0.1151,0.3053 0.4277,1.1021 0.4452,1.3364zm-9.1327 0.6155c-0.7922,-1.3104 0.1196,-3.6102 1.4474,-4.2756 -0.0944,1.3253 -0.7148,3.4428 -1.4474,4.2756zm-3.8259 0.6106c-0.3122,-1.891 0.8682,-4.3285 2.062,-5.0401 0.7564,1.3681 -1.0999,4.4651 -2.062,5.0401zm66.6203 0.0879c-2.0031,-0.8306 -2.8514,-7.1443 -2.9446,-9.3259 2.4333,0.7857 3.7166,7.7709 2.9446,9.3259zm-58.8758 -11.2651c0.5922,-1.2273 1.5763,-1.8435 3.311,-1.5599 1.6861,0.2756 2.5975,0.8744 2.5486,2.5112 -1.5722,0.2727 -4.7437,-0.1118 -5.8596,-0.9513zm60.339 6.0416c-1.6286,-0.838 -3.0653,-8.6523 -2.7934,-10.1832 2.4911,0.5429 2.9228,8.2951 2.7934,10.1832zm-62.2252 -8.0417c-1.2296,2.7864 -6.2788,1.2179 -7.3121,-0.9074 2.5171,1.4756 4.1398,1.9571 7.3121,0.9074zm63.309 1.3491c-1.355,-0.5511 -1.3152,-1.0525 -1.6438,-2.7398 -0.2512,-1.2896 -0.3489,-2.3233 -0.2977,-3.7045 1.9315,0.8406 2.1209,4.0255 1.9415,6.4443zm-53.1545 2.5784c0.4224,-1.2118 2.655,-1.8382 3.2814,-3.7857 0.9626,-2.9921 -0.7075,-3.961 -1.386,-5.6237 5.7218,1.3662 4.6893,10.8951 -1.8954,9.4094zm51.3993 -11.507c-1.1577,-0.333 -1.5685,-0.8309 -1.8763,-1.722 0.504,-0.3794 3.0894,-0.0323 3.7199,0.1558 1.0391,0.3101 0.5923,0.23 1.0513,0.5624 -0.4399,0.9058 -0.8983,1.578 -2.8949,1.0038zm-64.337 12.399c-1.0472,0.611 -7.32,-2.5795 -8.3333,-3.9769 -2.2602,-3.1168 0.8052,-7.3489 1.7418,-10.1402 -7.6381,2.5818 -6.9584,3.0764 -16.6683,2.1328 -0.2642,11.4552 1.4803,20.5449 5.8876,30.8159 1.1674,2.7205 2.6214,5.3499 3.6134,7.7713l0.8372 -2.4496c0.5868,1.0722 0.3164,1.8467 0.4765,3.0344 0.2342,1.7367 0.9943,1.7165 1.3302,2.5786 0.0422,-0.5413 -0.0098,-1.1055 0.0347,-1.5594l0.5421 -1.7541c1.3814,2.3429 -0.6419,4.619 1.7149,6.0633 0.0885,-2.8809 -0.1708,-3.3901 1.1073,-3.9487 1.6926,3.591 -1.5854,5.4972 2.0183,9.4652 0.0698,-1.6807 -0.2077,-3.1974 0.5172,-4.3778 2.3764,1.648 -0.8292,6.0318 2.7677,7.9259 -0.1043,-1.3782 -0.3892,-4.0594 0.1006,-5.514 0.5586,-1.6589 -0.0874,-0.7068 0.9462,-1.0119l0.2173 7.2842 2.1704 0.4972c-0.3768,-2.3117 -0.4321,-5.2538 0.0461,-7.6037 0.2625,-1.29 0.0564,-1.2752 1.094,-1.5844 0.3649,0.8326 -0.0975,7.3973 0.0841,9.3589l2.6781 0.3244c-0.09,-1.5505 -0.3574,-2.8654 -0.342,-4.5259 0.0236,-2.5519 -0.1054,-3.6905 1.1076,-4.1982l0.5555 8.5841 2.8576 0.2668c-0.5421,-2.6379 -0.8759,-5.9797 -0.3993,-8.5969 1.1008,0.4068 1.0847,-0.4601 1.4482,3.7574 0.1384,1.606 0.257,3.1929 0.457,4.761l2.0535 -0.1223c-0.1484,-1.1665 -0.4255,-2.1804 -0.5156,-3.4395l0.1523 -2.9379c0.3027,-0.7713 0.0337,-0.2297 0.4463,-0.6868 0.5405,0.3022 0.9004,-0.413 1.129,2.951 0.0902,1.3261 0.1714,2.5901 0.2766,3.9363l2.6606 -0.2697c-0.3444,-1.8671 -1.3434,-4.9933 -0.1856,-6.4558 1.1622,0.4242 1.1233,0.8557 1.3337,2.4827 0.1586,1.2265 0.2409,2.3922 0.3022,3.6106l2.5947 -0.7462c-0.0964,-1.885 -0.9797,-4.479 0.0027,-6.0879 0.3978,0.1526 0.9519,-0.4968 1.1794,2.3007 0.1017,1.2515 -0.0173,1.9717 0.3199,3.2017l1.3403 -0.624c-0.3191,-1.7826 -1.0116,-5.9438 0.6882,-6.8944 1.0597,1.5539 0.1212,4.9086 -0.3851,6.5746l3.2218 -1.4094c-0.5134,-2.4497 -1.4393,-6.8484 -0.3035,-9.3355 1.5971,1.2222 1.3329,6.8154 0.6072,8.9787l2.5907 -1.0257c0.0268,-1.7061 -0.3917,-3.8605 0.6189,-5.1319 0.8963,0.9622 0.6113,2.8025 0.6104,4.408l2.142 -0.7604c0.1153,-1.4615 -0.2477,-3.4137 1.0358,-3.9946 0.6022,1.1703 0.3775,2.0133 0.386,3.4173l3.7967 -1.4896 0.2471 -3.372c0.5473,-1.414 -0.0436,-0.29 0.6014,-0.8255 0.686,1.2017 0.3964,2.1425 0.3293,3.643l3.4528 -1.2459c-0.0416,-1.5126 -0.0705,-2.7967 0.804,-3.9126l0.3679 1.5014c0.0067,0.4396 -0.1583,1.3704 -0.2141,1.8558 3.8561,-0.9806 1.1946,-1.6467 2.668,-4.9329 0.8836,1.0591 0.346,2.0499 0.4572,3.6321l2.2188 -1.0424 0.4654 -4.8286c0.7348,-1.832 0.0621,-0.5069 0.8851,-1.1915l-0.2975 5.2151 2.8582 -1.6655c0.3828,-2.5721 -0.1061,-7.0374 1.5272,-8.6302 1.2292,1.5709 0.3191,5.0523 0.0595,7.0592 0.722,-0.3709 1.3443,-0.8068 2.0921,-1.7844 1.5656,-2.0465 -1.4755,-7.7836 0.6706,-10.2497 1.3337,1.2593 1.2847,4.851 1.4808,6.7439 3.1145,-3.5869 1.6557,-4.2404 1.1543,-5.847 -0.6383,-2.0452 -1.7738,-5.8644 -0.8712,-7.6657 2.2788,1.1668 1.7849,5.4443 2.8222,7.4443 1.5165,-2.1469 2.8365,-8.7503 4.201,-11.6342 3.1048,0.0421 3.9148,2.8708 8.9012,-0.2805 4.8436,-3.0609 11.7326,-14.6704 11.2473,-23.3454 -0.4295,-7.6786 -6.4651,-14.3406 -13.0814,-7.7716 -0.6526,0.6478 -0.9291,1.1698 -1.3143,1.5025 -1.7842,1.5412 -1.4011,-0.471 -2.5887,3.0621 -0.9602,2.8566 -1.4832,6.8297 -2.9314,8.7308 -0.7623,0.1871 -3.3948,0.1701 -4.0454,-0.2193 -0.2468,-1.1994 0.6103,-10.1082 0.6802,-12.4137 -2.2913,-0.1808 -4.4069,-0.4863 -6.6982,-0.6974 -9.9911,-0.9203 -5.6314,-1.4145 -8.1841,6.7231 -2.2028,7.0224 -5.058,10.8522 -13.3667,12.0614 -9.4693,1.3782 -19.2455,-0.7005 -22.9881,-10.5381 -3.1673,-8.3256 0.0271,-10.0712 -6.0427,-10.8267 -4.5565,-0.5671 -2.9571,0.5669 -4.0638,4.0964 -2.8346,9.0403 -12.0826,20.1231 -6.1862,23.7355 1.1209,0.6868 3.679,1.8987 4.0513,3.2911 0.3402,1.2722 0.1717,0.3364 -0.0769,0.7934z"/>
    <path fill="#FDFEFD" d="M84.9048 81.2523c1.323,-0.3928 0.2468,0.1984 1.2476,-0.9859 0.314,-3.5 4.0363,-5.816 7.3949,-6.8235 -1.1806,-1.1542 -2.308,-2.3084 -2.4713,-4.5713 6.3102,-3.2619 17.7953,-6.0699 24.3132,-1.7865 1.9385,1.274 5.0717,2.9187 4.8884,5.3207 -2.4604,0.1548 -14.2142,-4.9996 -24.7041,0.3066 7.1457,-0.3141 11.3198,-1.2905 18.9729,-0.1912 11.0947,1.5937 10.0922,3.4171 11.0552,9.0084l12.9859 2.0339c-0.636,-3.0149 -3.206,-5.848 -4.6759,-8.1857 -2.3246,-3.697 -2.2013,-5.1336 -2.5756,-10.1323 -6.1381,-1.5107 -8.7418,-2.2492 -13.431,-5.2556 -13.7661,-8.8261 -18.4125,-24.1408 -28.9147,-27.8911 -4.2584,-1.5207 -5.0326,0.9023 -7.1072,0.7634 -1.9016,-0.1273 -1.7954,-1.0095 -3.5617,0.4282 -1.003,0.8164 -1.4401,1.6996 -2.9681,1.9507 -1.9411,0.3189 -2.9116,-1.3181 -6.5651,2.2739 -6.3399,6.2333 -13.7512,22.8564 -15.4677,31.7145 3.9075,-1.9931 4.4594,-3.5254 10.8401,-2.7123 3.5868,0.457 8.7897,1.8714 8.7817,5.2039 -1.0983,4.0596 -8.2291,-1.4077 -15.0677,-0.2902l-5.0251 1.3988c10.1631,0.1574 20.4284,0.0269 23.54,8.4344 4.1184,-0.821 4.3485,-0.7142 8.5153,-0.0118z"/>
    <path fill="#FDFEFD" d="M82.3088 176.624c-0.2186,1.7401 -0.5821,5.5399 -2.2442,6.187 -0.7302,-1.0772 -0.3996,-2.5853 -0.5269,-4.0902 -3.8868,10.3872 9.6473,29.3179 37.1795,15.0244 6.5589,-3.4051 16.8635,-13.111 21.725,-18.8535 1.4174,-1.6742 0.5594,-1.9695 0.0684,-4.2697 -2.2617,-10.5968 -2.1679,-18.0015 -1.8044,-28.184l-0.7566 0.6086c-0.0614,0.0593 -0.1435,0.14 -0.2071,0.2056 -0.118,0.1217 -0.4647,0.5621 -0.6555,0.7991 -0.4865,0.6041 -0.812,1.0077 -1.2637,1.5325l-5.2836 6.0124c-6.1349,5.6141 -7.0701,7.0997 -14.7941,13.4241 -4.6643,3.8191 -15.1415,10.8288 -21.6032,12.2413 -5.1318,1.1219 -5.8567,-0.1304 -9.8336,-0.6376z"/>
    <path fill="#FDFEFD" d="M93.7285 86.642c0.321,-3.5537 5.9854,-5.7932 10.3391,-5.5435 3.8634,0.2215 9.8885,2.5524 9.8772,5.7496 -1.9324,0.0179 -3.9252,-1.2375 -5.3052,-1.9632 -0.7011,1.074 -0.189,1.7841 -1.5758,3.2519 -2.1989,2.3273 -7.8441,2.4601 -7.7384,-3.9219 -2.4457,0.5333 -3.7609,1.9287 -5.5969,2.4271zm7.7895 -10.8867c-11.1077,0.7122 -15.4386,4.6678 -11.5242,16.3632 3.1328,9.3602 7.0287,12.2353 18.654,11.0056 4.9797,-0.5268 7.8459,-1.7588 9.8087,-5.009 1.7464,-2.8918 2.9117,-8.2991 3.0397,-12.2802 0.194,-6.0359 -0.8595,-7.833 -6.1232,-9.192 -4.645,-1.1993 -8.9577,-1.2015 -13.855,-0.8876z"/>
    <path fill="#FDFEFD" d="M59.9563 84.7528c-2.0473,0.7417 -5.3497,3.6928 -4.451,0.5921 0.4266,-1.4721 3.256,-3.0792 4.9998,-3.5408 4.4604,-1.1808 11.3852,1.3973 11.35,4.6408 -1.6537,-0.1891 -1.6454,-0.8541 -3.2493,-1.3312 -0.1599,2.5489 -1.5982,4.4504 -4.4151,4.3754 -3.6225,-0.0965 -3.2368,-2.4214 -4.2344,-4.7363zm-7.4194 18.0127c4.8466,1.0685 10.9531,0.3477 14.5538,-2.0408 2.7813,-1.8449 5.2013,-6.3662 6.288,-11.0056 3.2259,-13.7726 -10.0681,-13.7714 -20.9753,-13.4216 0.4486,4.3877 2.306,8.8502 2.036,13.0728 -0.2576,4.0299 -2.4831,9.7262 -1.9025,13.3952z"/>
    <path fill="#FDFEFD" d="M49.0202 101.3729c0.7819,-1.4169 2.0848,-9.4443 2.6292,-11.8497 0.7803,-3.4485 -1.3454,-8.4604 -1.4979,-12.8452 -7.5416,1.4491 -8.2607,3.1298 -7.5841,11.6379 0.463,5.822 2.7086,11.1299 6.4528,13.057z"/>
   </g>
   <g>
    <path fill="black" d="M82.3088 176.624c3.9769,0.5072 4.7018,1.7595 9.8336,0.6376 6.4617,-1.4125 16.9389,-8.4222 21.6032,-12.2413 7.724,-6.3244 8.6592,-7.81 14.7941,-13.4241l5.2836 -6.0124c0.4517,-0.5248 0.7772,-0.9284 1.2637,-1.5325 0.1908,-0.237 0.5375,-0.6774 0.6555,-0.7991 0.0636,-0.0656 0.1457,-0.1463 0.2071,-0.2056l0.7566 -0.6086c-0.3635,10.1825 -0.4573,17.5872 1.8044,28.184 0.491,2.3002 1.349,2.5955 -0.0684,4.2697 -4.8615,5.7425 -15.1661,15.4484 -21.725,18.8535 -27.5322,14.2935 -41.0663,-4.6372 -37.1795,-15.0244 0.1273,1.5049 -0.2033,3.013 0.5269,4.0902 1.6621,-0.6471 2.0256,-4.4469 2.2442,-6.187zm-6.8755 -59.0446c0.2486,-0.457 0.4171,0.4788 0.0769,-0.7934 -0.3723,-1.3924 -2.9304,-2.6043 -4.0513,-3.2911 -5.8964,-3.6124 3.3516,-14.6952 6.1862,-23.7355 1.1067,-3.5295 -0.4927,-4.6635 4.0638,-4.0964 6.0698,0.7555 2.8754,2.5011 6.0427,10.8267 3.7426,9.8376 13.5188,11.9163 22.9881,10.5381 8.3087,-1.2092 11.1639,-5.039 13.3667,-12.0614 2.5527,-8.1376 -1.807,-7.6434 8.1841,-6.7231 2.2913,0.2111 4.4069,0.5166 6.6982,0.6974 -0.0699,2.3055 -0.927,11.2143 -0.6802,12.4137 0.6506,0.3894 3.2831,0.4064 4.0454,0.2193 1.4482,-1.9011 1.9712,-5.8742 2.9314,-8.7308 1.1876,-3.5331 0.8045,-1.5209 2.5887,-3.0621 0.3852,-0.3327 0.6617,-0.8547 1.3143,-1.5025 6.6163,-6.569 12.6519,0.093 13.0814,7.7716 0.4853,8.675 -6.4037,20.2845 -11.2473,23.3454 -4.9864,3.1513 -5.7964,0.3226 -8.9012,0.2805 -1.3645,2.8839 -2.6845,9.4873 -4.201,11.6342 -1.0373,-2 -0.5434,-6.2775 -2.8222,-7.4443 -0.9026,1.8013 0.2329,5.6205 0.8712,7.6657 0.5014,1.6066 1.9602,2.2601 -1.1543,5.847 -0.1961,-1.8929 -0.1471,-5.4846 -1.4808,-6.7439 -2.1461,2.4661 0.895,8.2032 -0.6706,10.2497 -0.7478,0.9776 -1.3701,1.4135 -2.0921,1.7844 0.2596,-2.0069 1.1697,-5.4883 -0.0595,-7.0592 -1.6333,1.5928 -1.1444,6.0581 -1.5272,8.6302l-2.8582 1.6655 0.2975 -5.2151c-0.823,0.6846 -0.1503,-0.6405 -0.8851,1.1915l-0.4654 4.8286 -2.2188 1.0424c-0.1112,-1.5822 0.4264,-2.573 -0.4572,-3.6321 -1.4734,3.2862 1.1881,3.9523 -2.668,4.9329 0.0558,-0.4854 0.2208,-1.4162 0.2141,-1.8558l-0.3679 -1.5014c-0.8745,1.1159 -0.8456,2.4 -0.804,3.9126l-3.4528 1.2459c0.0671,-1.5005 0.3567,-2.4413 -0.3293,-3.643 -0.645,0.5355 -0.0541,-0.5885 -0.6014,0.8255l-0.2471 3.372 -3.7967 1.4896c-0.0085,-1.404 0.2162,-2.247 -0.386,-3.4173 -1.2835,0.5809 -0.9205,2.5331 -1.0358,3.9946l-2.142 0.7604c0.0009,-1.6055 0.2859,-3.4458 -0.6104,-4.408 -1.0106,1.2714 -0.5921,3.4258 -0.6189,5.1319l-2.5907 1.0257c0.7257,-2.1633 0.9899,-7.7565 -0.6072,-8.9787 -1.1358,2.4871 -0.2099,6.8858 0.3035,9.3355l-3.2218 1.4094c0.5063,-1.666 1.4448,-5.0207 0.3851,-6.5746 -1.6998,0.9506 -1.0073,5.1118 -0.6882,6.8944l-1.3403 0.624c-0.3372,-1.23 -0.2182,-1.9502 -0.3199,-3.2017 -0.2275,-2.7975 -0.7816,-2.1481 -1.1794,-2.3007 -0.9824,1.6089 -0.0991,4.2029 -0.0027,6.0879l-2.5947 0.7462c-0.0613,-1.2184 -0.1436,-2.3841 -0.3022,-3.6106 -0.2104,-1.627 -0.1715,-2.0585 -1.3337,-2.4827 -1.1578,1.4625 -0.1588,4.5887 0.1856,6.4558l-2.6606 0.2697c-0.1052,-1.3462 -0.1864,-2.6102 -0.2766,-3.9363 -0.2286,-3.364 -0.5885,-2.6488 -1.129,-2.951 -0.4126,0.4571 -0.1436,-0.0845 -0.4463,0.6868l-0.1523 2.9379c0.0901,1.2591 0.3672,2.273 0.5156,3.4395l-2.0535 0.1223c-0.2,-1.5681 -0.3186,-3.155 -0.457,-4.761 -0.3635,-4.2175 -0.3474,-3.3506 -1.4482,-3.7574 -0.4766,2.6172 -0.1428,5.959 0.3993,8.5969l-2.8576 -0.2668 -0.5555 -8.5841c-1.213,0.5077 -1.084,1.6463 -1.1076,4.1982 -0.0154,1.6605 0.252,2.9754 0.342,4.5259l-2.6781 -0.3244c-0.1816,-1.9616 0.2808,-8.5263 -0.0841,-9.3589 -1.0376,0.3092 -0.8315,0.2944 -1.094,1.5844 -0.4782,2.3499 -0.4229,5.292 -0.0461,7.6037l-2.1704 -0.4972 -0.2173 -7.2842c-1.0336,0.3051 -0.3876,-0.647 -0.9462,1.0119 -0.4898,1.4546 -0.2049,4.1358 -0.1006,5.514 -3.5969,-1.8941 -0.3913,-6.2779 -2.7677,-7.9259 -0.7249,1.1804 -0.4474,2.6971 -0.5172,4.3778 -3.6037,-3.968 -0.3257,-5.8742 -2.0183,-9.4652 -1.2781,0.5586 -1.0188,1.0678 -1.1073,3.9487 -2.3568,-1.4443 -0.3335,-3.7204 -1.7149,-6.0633l-0.5421 1.7541c-0.0445,0.4539 0.0075,1.0181 -0.0347,1.5594 -0.3359,-0.8621 -1.096,-0.8419 -1.3302,-2.5786 -0.1601,-1.1877 0.1103,-1.9622 -0.4765,-3.0344l-0.8372 2.4496c-0.992,-2.4214 -2.446,-5.0508 -3.6134,-7.7713 -4.4073,-10.271 -6.1518,-19.3607 -5.8876,-30.8159 9.7099,0.9436 9.0302,0.449 16.6683,-2.1328 -0.9366,2.7913 -4.002,7.0234 -1.7418,10.1402 1.0133,1.3974 7.2861,4.5879 8.3333,3.9769zm-26.4131 -16.2065c-3.7442,-1.9271 -5.9898,-7.235 -6.4528,-13.057 -0.6766,-8.5081 0.0425,-10.1888 7.5841,-11.6379 0.1525,4.3848 2.2782,9.3967 1.4979,12.8452 -0.5444,2.4054 -1.8473,10.4328 -2.6292,11.8497zm52.4978 -25.6176c4.8973,-0.3139 9.21,-0.3117 13.855,0.8876 5.2637,1.359 6.3172,3.1561 6.1232,9.192 -0.128,3.9811 -1.2933,9.3884 -3.0397,12.2802 -1.9628,3.2502 -4.829,4.4822 -9.8087,5.009 -11.6253,1.2297 -15.5212,-1.6454 -18.654,-11.0056 -3.9144,-11.6954 0.4165,-15.651 11.5242,-16.3632zm-28.1393 13.9638c-1.0867,4.6394 -3.5067,9.1607 -6.288,11.0056 -3.6007,2.3885 -9.7072,3.1093 -14.5538,2.0408 -0.5806,-3.669 1.6449,-9.3653 1.9025,-13.3952 0.27,-4.2226 -1.5874,-8.6851 -2.036,-13.0728 10.9072,-0.3498 24.2012,-0.351 20.9753,13.4216zm12.7737 -9.4527l-0.2635 1.1686c-0.1146,0.026 0.0601,0.4733 -0.9841,-0.1827 -4.1668,-0.7024 -4.3969,-0.8092 -8.5153,0.0118 -3.1116,-8.4075 -13.3769,-8.277 -23.54,-8.4344l5.0251 -1.3988c6.8386,-1.1175 13.9694,4.3498 15.0677,0.2902 0.008,-3.3325 -5.1949,-4.7469 -8.7817,-5.2039 -6.3807,-0.8131 -6.9326,0.7192 -10.8401,2.7123 1.7165,-8.8581 9.1278,-25.4812 15.4677,-31.7145 3.6535,-3.592 4.624,-1.955 6.5651,-2.2739 1.528,-0.2511 1.9651,-1.1343 2.9681,-1.9507 1.7663,-1.4377 1.6601,-0.5555 3.5617,-0.4282 2.0746,0.1389 2.8488,-2.2841 7.1072,-0.7634 10.5022,3.7503 15.1486,19.065 28.9147,27.8911 4.6892,3.0064 7.2929,3.7449 13.431,5.2556 0.3743,4.9987 0.251,6.4353 2.5756,10.1323 1.4699,2.3377 4.0399,5.1708 4.6759,8.1857l-12.9859 -2.0339c-0.963,-5.5913 0.0395,-7.4147 -11.0552,-9.0084 -7.6531,-1.0993 -11.8272,-0.1229 -18.9729,0.1912 10.4899,-5.3062 22.2437,-0.1518 24.7041,-0.3066 0.1833,-2.402 -2.9499,-4.0467 -4.8884,-5.3207 -6.5179,-4.2834 -18.003,-1.4754 -24.3132,1.7865 0.1633,2.2629 1.2907,3.4171 2.4713,4.5713 -3.3586,1.0075 -7.0809,3.3235 -7.3949,6.8235zm-92.2579 201.7102l233.9397 0c0.0857,-10.2979 -4.5387,-32.5172 -7.2339,-42.8208 -2.7297,-10.4357 -9.2588,-27.9023 -14.3964,-35.6963 -5.4757,-8.3068 -20.0645,-15.9084 -29.455,-20.6353l-34.805 -15.2691c-0.7562,-5.6555 -1.7562,-18.685 -1.3107,-24.6031 0.0853,-1.1337 0.0841,-1.353 0.6086,-2.0057 1.0095,-1.2562 1.1983,-0.4853 1.2908,-0.4741 2.5596,0.3097 3.0958,-3.5327 4.9984,-3.4595 2.3596,0.0907 2.7275,-1.014 4.7825,-4.6869 1.2025,-2.1493 2.1205,-4.222 3.4054,-6.4664 1.2665,-2.2123 2.6303,-4.0467 3.9909,-6.2452 0.7456,-1.2048 0.9552,-2.1411 1.6159,-3.3378 0.4891,-0.886 1.5769,-1.4463 2.438,-2.4847 8.6781,-10.4645 7.4524,-20.9044 9.5559,-30.6695 2.2256,-10.3325 5.2877,-24.9804 0.416,-34.5137 -4.8269,-9.446 -11.8847,-15.5653 -17.5208,-23.0535 -3.1057,-4.1263 -5.3641,-8.5267 -8.8686,-11.2379 -3.6554,-2.828 -6.9674,-5.786 -12.4908,-7.6247 -6.6549,-2.2154 -20.2522,-1.3154 -27.7975,-0.0591 -8.8084,1.4666 -16.8981,-2.4111 -25.8503,3.4368 -5.9324,3.8753 -6.08,5.3556 -9.2762,10.7332 -12.6248,-4.897 -17.4132,9.5391 -19.9361,11.915l-5.7543 5.5305c-6.4115,8.4993 0.2116,20.2623 0.1598,22.1217 -0.0401,1.4377 -0.8905,2.7525 -0.8026,4.6124 0.1232,2.6079 2.208,5.8221 2.7728,8.4863 -2.2258,0.2887 -8.8027,1.9137 -9.7878,3.3461 -0.9588,1.3944 -0.7503,4.4225 -0.2216,5.9213 1.006,2.8521 -0.0059,9.6271 3.4417,15.9584 2.2407,4.1148 4.1445,4.4382 6.8789,6.1872 -0.3818,13.5426 1.7854,26.9057 7.224,37.5678 2.8515,5.5903 6.447,8.0359 9.2085,13.0136 1.704,3.0715 2.417,4.6644 4.7087,6.584 6.3338,5.3056 8.1907,-2.5683 9.3653,11.7089 -5.1775,0.628 -27.7308,12.1052 -33.7256,15.0576 -11.1169,5.4749 -21.0987,9.34 -27.4587,21.2332 -10.0532,18.7993 -13.8556,32.7592 -20.1687,52.8432 -1.461,4.6481 -5.5012,14.4596 -3.9412,19.0861z"/>
    <path fill="black" d="M59.9563 84.7528c0.9976,2.3149 0.6119,4.6398 4.2344,4.7363 2.8169,0.075 4.2552,-1.8265 4.4151,-4.3754 1.6039,0.4771 1.5956,1.1421 3.2493,1.3312 0.0352,-3.2435 -6.8896,-5.8216 -11.35,-4.6408 -1.7438,0.4616 -4.5732,2.0687 -4.9998,3.5408 -0.8987,3.1007 2.4037,0.1496 4.451,-0.5921z"/>
   </g>
   <path fill="#080606" d="M138.9785 126.0251c0.772,-1.555 -0.5113,-8.5402 -2.9446,-9.3259 0.0932,2.1816 0.9415,8.4953 2.9446,9.3259z"/>
   <path fill="#090909" d="M141.5255 114.109c0.1794,-2.4188 -0.01,-5.6037 -1.9415,-6.4443 -0.0512,1.3812 0.0465,2.4149 0.2977,3.7045 0.3286,1.6873 0.2888,2.1887 1.6438,2.7398z"/>
   <path fill="#0D0D0D" d="M103.7007 133.1662c0.2041,-0.3406 0.567,0.4251 0.249,-1.3379 -0.2403,-1.3323 -1.2276,-3.643 -2.3656,-4.0221 -0.5683,1.4055 0.8738,4.597 2.1166,5.36z"/>
   <path fill="#1E1E1D" d="M78.2165 112.7599c-3.1723,1.0497 -4.795,0.5682 -7.3121,-0.9074 1.0333,2.1253 6.0825,3.6938 7.3121,0.9074z"/>
   <path fill="#110F11" d="M81.3632 125.5801c0.4272,-1.4626 0.085,-3.2151 -0.593,-4.5385 -0.1458,0.1628 -0.9103,-0.5591 -0.4831,2.5606 0.1862,1.3592 0.1738,1.6078 1.0761,1.9779z"/>
   <path fill="#141413" d="M85.0035 125.6593c0.2704,-0.3911 0.4382,0.7242 0.3133,-0.9482 -0.0175,-0.2343 -0.3301,-1.0311 -0.4452,-1.3364 -0.3358,-0.8908 -0.5533,-1.5407 -0.9134,-2.1891 -0.7711,1.2165 0.0242,3.6555 1.0453,4.4737z"/>
   <path fill="#737373" d="M84.9048 81.2523c1.0442,0.656 0.8695,0.2087 0.9841,0.1827l0.2635 -1.1686c-1.0008,1.1843 0.0754,0.5931 -1.2476,0.9859z"/>
   <polygon fill="#808081" points="68.8818,126.3718 69.0628,126.2127 69.7936,124.4926 69.4706,124.5451 "/>
  </g>
 </g>
</svg>
